<svg width="50.00000000000001" height="50.00000000000001" xmlns="http://www.w3.org/2000/svg">
  <title>
    rogrammer
  </title>
  <metadata>
    image/svg+xmlrogrammerDecember 23, 2014Thenanobel
  </metadata>
  <g>
    <title>
      background
    </title>
    <rect fill="none" id="canvas_background" height="914" width="402" y="-1" x="-1"/>
  </g>
  <g>
    <title>
      Layer 1
    </title>
    <path id="svg_3" d="m21.944942 42.525055l-5.346487 2.472771s-1.753394 1.371658 0.078241 2.711655 5.340086 0.957714 5.340086 0.957714l5.010187-2.493435s1.699095-2.035969 0.617008-2.983784c-1.081999-0.947689-6.017185-0.464188-5.698786-0.664921l-0.00025 0z" fill="#000000"/>
    <path id="svg_4" d="m17.338955 26.801847l-0.146009 1.754671 -1.898194 1.023729 -8.615078-0.731182 0-2.485977 10.658973 0.438759 0.000309 0z" fill="#000000"/>
    <path id="svg_5" fill="#000000" d="m3.94039 14.984321s-7.67168 2.272283-1.606196 13.161433c0.10059 0.180687-1.606196-6.287987 3.212292-7.165382 4.818587-0.877396-1.168097-5.84941-1.606196-5.995562l0.0001-0.000489z"/>
    <path id="svg_6" fill="#000000" stroke-width="0.290209" stroke="#000000" d="m1.424296 7.973953l1.459596-0.658873 6.863382 10.895142 -1.972095 6.946247 -1.678396-0.219685 -4.672687-16.963016 0.0002 0.000184z"/>
    <path id="svg_7" fill="#396849" d="m45.666882 17.187592c0.584038 0.731184 0.401997 5.842442-0.292038 9.505085 -0.555264 2.930483-4.638992 6.972347-8.162983 9.826546 -3.523987 2.853954-5.580383 1.067986-5.580383 1.067986l-3.605591-8.71027 0.458939-0.381302 8.274979-8.23728 8.907078-3.070948 0 0.000183z"/>
    <path id="svg_8" fill="#542d19" stroke-width="0.870626" stroke-linecap="round" stroke="#000000" d="m37.238899 2.065189c-2.865292 0.070111-4.882786 1.817263-4.791084 5.121161l-0.016632 3.062146c-0.789396 0.106052-1.994394 0.367242-1.994394 0.99867 0 0.601414 1.214695 1.311448 2.080496 1.528749l0.04924 1.541221s1.501495 1.719523 3.348087 1.941775l1.249096 3.976217 6.753185-4.259779 -1.957397-4.043944c0.683064-0.307951 1.661697-0.958571 2.074398-2.280901 0.666428-2.135727 0.556934-4.439855-2.108795-6.308341 -0.833015-0.583932-3.38409-1.308698-4.686588-1.276852l0.000389-0.000122z" stroke-linejoin="round"/>
    <path id="svg_9" d="m41.725891 15.785494s3.212292-0.877397 4.23439 1.462246c1.022099 2.339825 0.292038 4.679588-2.190193 5.849409 -2.482292 1.169945-9.344978 4.24077-9.344978 4.24077s-0.292038 0.438637-1.460197 0.146334c-1.168095-0.292547-2.044193-4.679649-2.190191-6.141895 -0.14603-1.462368 3.066294-2.193491 4.52669-2.63225 1.460194-0.438761 6.862881-3.217039 6.42458-2.924614l-0.000099 0z" fill="#396849"/>
    <path id="svg_10" fill="#000c00" d="m38.294899 8.274384l-5.142189 0.154404 -0.961315 0.046088 0.526001 3.197111 0.281136-0.054034 -0.1451-2.597653 5.123589-0.389064c1.108894-0.080136 0.916473 0.82929 0.997963 1.460717 0.093941 0.728373-1.026196 0.999281-0.462536 0.908265 0.563667-0.091139 1.125198-0.541818 0.843399-1.907301 -0.140923-0.682712-0.618-0.837788-1.061096-0.817432l0.000149-0.001101z"/>
    <path id="svg_11" fill="#ffffff" stroke-width="0.870626" stroke-linecap="round" stroke="#000000" d="m3.177192 7.473212l4.964587 1.023608 4.526688 15.208529 -4.818587 1.169821 -4.672688-17.401774 0-0.000183z" stroke-linejoin="round"/>
    <path id="svg_12" fill="#4d4d4d" stroke-width="0.272602" stroke="#000000" d="m17.881952 26.301107l-4.380387-1.462368 -6.862882 1.462368 9.344975 1.754791 1.898195-1.754791 0.000099 0z"/>
    <path id="svg_13" fill="#542d19" stroke-width="0.870626" stroke-linecap="round" stroke="#000000" d="m27.928928 22.295183c-0.663908 0.01198-2.463194 0.255993-2.937792 0.511864 -1.898197 1.023609-3.93869 3.331955-3.93869 3.331955l-0.849669-0.639862 -0.0063-0.025061 -0.898718-0.991213c-0.114658 0.171152-4.574287-0.038998-6.285883 0.109781 0 0-0.299609 1.317255 1.687896 1.319334 0.776657-0.208683 1.384995-0.046089 2.137794 0.166018l-2.137794 2.614096s1.155296 0.945002 2.177394-0.956127c0.210581-0.391569 1.612196-0.211004 1.823595-0.270662 0.31267 0.982655 0.776278 2.052839 1.329596 2.052839 1.022099 0 12.411968-1.173367 13.141968-2.928158 0.73008-1.754793-1.460598-4.532705-1.606596-4.679039 0 0-0.609501 0.21516-2.601294 0.235699l-1.035597 0.148169 0.000107 0 -0.000017 0.000368z" stroke-linejoin="round"/>
    <path id="svg_14" d="m35.514908 11.879754c-0.061192 0.186372-0.301289 0.652148-1.2803 1.362305 -0.549736 0.398784-1.203995 0.455386-1.772793 0.394566l0 0.486926c0.857155 0.216446 1.673298-0.052078 2.111294-0.376044 0.613419-0.454774 0.88998-1.629302 0.941788-1.867752l0.000011 0z" fill="#000000"/>
    <path id="svg_15" fill="#000000" d="m32.354916 9.776607l1.532295 0.621036s-1.057999-2.447957-1.532295-0.621036z"/>
    <path id="svg_16" fill="#426373" stroke-width="0.870626" stroke-linecap="round" stroke="#000000" d="m28.291925 29.505798l-8.871977 2.283527c-2.349892 0.6049-5.493384 2.802608-2.487492 6.850708 3.005692 4.048225 3.546089 5.966469 4.311588 6.539337 2.254293 1.686821 6.581583-2.828526 6.581583-2.828526l-2.891693-4.416565s8.623278 0.186798 9.452375-0.021027c0.829159-0.207584-5.472486-8.199995-6.094383-8.407824l-0.000002 0.000368z" stroke-linejoin="round"/>
    <rect id="svg_17" fill="#000000" stroke-width="0.34686" x="48.928777" y="12.720801" stroke="#000000" width="3.2599" height="13.126" transform="matrix(0.991267, 0.132045, -0.13207, 0.992709, 1.46425e-08, -3.62572)" ry="1.8636"/>
    <path id="svg_18" fill="#ffffff" d="m29.546923 28.30407c-2.551191 0-4.612587 2.082792-4.612587 4.649334l18.402952 0c0-2.566298-2.061295-4.649334-4.612591-4.649334l-9.177675 0 -0.000099 0zm0 0.760279l9.177675 0c2.144695 0 3.856991 1.729855 3.856991 3.889055l-16.890955 0c0-2.159201 1.712194-3.889055 3.856989-3.889055l-0.0007 0z"/>
    <path id="svg_19" fill="#000000" d="m28.857924 28.904934c-2.705292 0-4.878986 2.185972-4.878986 4.895546l0 2.088905c0 2.709328 2.173794 4.895546 4.878986 4.895546l10.574972 0c2.705296 0 4.87899-2.186218 4.87899-4.895546l0-2.088905c0-2.70933-2.173798-4.895546-4.87899-4.895546l-10.574972 0zm-0.662018 2.906399l12.070967 0c1.732498 0 3.128693 1.398308 3.128693 3.133419l0 1.335102c0 0.553677-0.139919 1.066032-0.38998 1.516769 -0.178925-0.673603-1.240395-1.194515-2.539291-1.198917l-12.505966-0.037041c-1.263197 0-2.315294 0.472134-2.548393 1.11713 -0.210171-0.422501-0.335539-0.892555-0.335539-1.398674l0-1.335106c0-1.735107 1.387196-3.133417 3.11969-3.133417l-0.000179 0.000734z"/>
    <path id="svg_20" d="m33.680561 4.536634s3.154625-1.89626 3.532925-0.197161c0.3783 1.69911-0.227001 1.89221-0.227001 1.89221s0.7187 0.81101 0.529602 1.35179c-0.189102 0.540531 1.513 0.077141 1.513 0.077141s1.361698-0.424761 1.437397 0.926778c0.075703 1.351801 0.075703 1.8925 0.075703 1.8925l2.572201 1.2742s1.512897-0.695099 1.853397-2.239849c0.3405-1.54458 0.264801-4.556731-1.0592-5.638161 -1.323898-1.08125-3.77494-3.025615-6.8465-2.35553 -3.07156 0.670085-3.419422 2.66858-3.759823 1.471501z" fill="#000000"/>
  </g>
</svg>
